<svg xmlns="http://www.w3.org/2000/svg" viewBox="0 0 2323 1426" width="2323" height="1426">
  <g fill="#0a0a0a" transform="translate(160.0,946.0) scale(1,-1)">
    <path transform="translate(0.0,0)" d="M426 598Q417 602 405.0 604.5Q393 607 381 607Q347 607 333.5 586.0Q320 565 320 533V526H431V361H320V0H90V361H0V526H90V538Q90 587 101.5 632.0Q113 677 141.0 711.5Q169 746 216.5 766.0Q264 786 336 786Q359 786 389.5 782.5Q420 779 441 771L426 598Z"/><path transform="translate(444.0,0)" d="M53 526H275V466H277Q294 498 327.5 519.0Q361 540 406 540Q433 540 450 535L432 339Q421 342 407.5 343.5Q394 345 383 345Q338 345 311.0 319.0Q284 293 284 255V0H53Z"/><path transform="translate(909.0,0)" d="M610 0H385V58H383Q363 29 323.5 7.5Q284 -14 233 -14Q177 -14 141.0 5.5Q105 25 83.5 56.5Q62 88 53.5 127.5Q45 167 45 206V526H277V248Q277 208 289.5 192.0Q302 176 327 176Q350 176 364.5 194.5Q379 213 379 248V526H610ZM353 678Q353 698 361.0 716.0Q369 734 383.0 747.5Q397 761 415.0 769.0Q433 777 454 777Q474 777 492.0 769.0Q510 761 523.5 747.5Q537 734 545.0 716.0Q553 698 553 678Q553 657 545.0 639.5Q537 622 523.5 608.5Q510 595 492.0 587.5Q474 580 454 580Q412 580 382.5 608.0Q353 636 353 678ZM104 678Q104 698 112.0 716.0Q120 734 134.0 747.5Q148 761 166.0 769.0Q184 777 205 777Q225 777 243.0 769.0Q261 761 274.5 747.5Q288 734 296.0 716.0Q304 698 304 678Q304 657 296.0 639.5Q288 622 274.5 608.5Q261 595 243.0 587.5Q225 580 205 580Q163 580 133.5 608.0Q104 636 104 678Z"/><path transform="translate(1592.0,0)" d="M282 -14Q176 -14 125.0 31.5Q74 77 74 173V361H0V526H73V644H297V526H411V361H297V221Q297 183 313.5 169.5Q330 156 359 156Q370 156 382.0 158.0Q394 160 401 162V4Q383 -4 350.5 -9.0Q318 -14 282 -14Z"/><rect x="0" y="-320.0" width="2003.0" height="120.0" rx="60.0"/>
  </g>
</svg>
